<?xml version="1.0" encoding="UTF-8" standalone="no"?>
<svg
   xmlns:dc="http://purl.org/dc/elements/1.1/"
   xmlns:cc="http://creativecommons.org/ns#"
   xmlns:rdf="http://www.w3.org/1999/02/22-rdf-syntax-ns#"
   xmlns:svg="http://www.w3.org/2000/svg"
   xmlns="http://www.w3.org/2000/svg"
   id="svg8"
   version="1.1"
   viewBox="0 0 249.99998 250"
   height="250mm"
   width="249.99998mm">
  <defs
     id="defs2" />
  <metadata
     id="metadata5">
    <rdf:RDF>
      <cc:Work
         rdf:about="">
        <dc:format>image/svg+xml</dc:format>
        <dc:type
           rdf:resource="http://purl.org/dc/dcmitype/StillImage" />
        <dc:title></dc:title>
      </cc:Work>
    </rdf:RDF>
  </metadata>
  <g
     transform="translate(49.78326,39.575126)"
     id="layer1">
    <g
       transform="matrix(0.83333324,0,0,0.83333324,-1.2463066,-14.976821)"
       id="g4685">
      <path
         style="fill:none;fill-opacity:1;stroke:#000000;stroke-width:2.14199996;stroke-miterlimit:4;stroke-dasharray:none;stroke-opacity:1"
         id="path4553"
         d="m 208.47023,129.68928 c -2.08643,8.76905 -87.18071,61.15299 -95.94976,59.06656 -8.76905,-2.08643 -61.152994,-87.18071 -59.066565,-95.949756 2.086428,-8.769048 87.180715,-61.152994 95.949755,-59.066565 8.76905,2.086428 61.153,87.180711 59.06657,95.949761 z"
         transform="rotate(56.943117,133.9269,115.05153)" />
      <path
         style="fill:none;fill-opacity:1;stroke:#000000;stroke-width:2.14199996;stroke-miterlimit:4;stroke-dasharray:none;stroke-opacity:1"
         id="path4557"
         d="m 132.83296,165.23612 c -5.17792,6.63578 -93.206926,31.93586 -101.117993,29.06193 -7.911068,-2.87393 -59.175329,-78.77633 -58.886718,-87.18829 0.288611,-8.411968 56.63456,-80.62231 64.723999,-82.947265 8.089439,-2.324954 94.177412,28.949004 98.888352,35.924068 4.71093,6.975063 1.57028,98.513777 -3.60764,105.149557 z" />
      <path
         style="fill:none;fill-opacity:1;stroke:#000000;stroke-width:2.14199996;stroke-miterlimit:4;stroke-dasharray:none;stroke-opacity:1"
         id="path4565"
         d="m 101.29762,87.601175 c 11.26039,0.209496 73.92122,113.559635 68.10959,123.206675 -5.81162,9.64704 -135.306136,7.23783 -140.754903,-2.6187 -5.448768,-9.85653 61.38492,-120.79747 72.645313,-120.587975 z" />
      <path
         style="fill:#000000;fill-opacity:1;stroke:#000000;stroke-width:1.90910625;stroke-miterlimit:4;stroke-dasharray:none;stroke-opacity:1"
         d="m 61.598693,135.88334 c 0.01058,-6.62862 11.362142,-34.47112 25.909632,-63.549835 5.947897,-11.889142 13.313405,-25.38395 14.586755,-26.725308 0.86168,-0.907687 27.67857,10.835008 32.0091,14.016278 0.70402,0.517181 1.40778,1.266479 1.56392,1.665105 0.42233,1.078209 0.97026,4.57182 1.30834,8.341955 0.46899,5.230003 0.63125,28.032414 0.27863,39.154985 -0.32261,10.17587 -0.99432,23.91398 -1.17824,24.0979 -0.0571,0.0571 -1.40115,-2.09428 -2.98683,-4.78078 -12.94864,-21.93796 -23.7539,-37.02117 -29.05889,-40.563705 -2.03388,-1.358178 -3.20199,-1.416291 -5.218835,-0.259652 -5.797029,3.324545 -19.107645,20.871087 -34.639747,45.663397 l -2.575706,4.11133 0.0019,-1.17167 z"
         id="path4650" />
      <path
         style="fill:#000000;fill-opacity:1;stroke:#000000;stroke-width:1.90910625;stroke-miterlimit:4;stroke-dasharray:none;stroke-opacity:1"
         d="m 33.80079,193.25568 c 0,-0.76881 7.186155,-15.33028 11.481115,-23.26444 4.221184,-7.79788 16.055125,-28.2935 16.720563,-28.95894 0.05291,-0.0529 0.796401,0.44259 1.652201,1.10112 6.98558,5.37528 29.049647,17.29251 48.857001,26.38861 2.64596,1.2151 4.89983,2.2881 5.0086,2.38444 0.10876,0.0964 -2.29667,1.04031 -5.34539,2.0977 -24.487678,8.49305 -60.515699,18.15442 -74.445551,19.96352 -3.373705,0.43816 -3.928539,0.47883 -3.928539,0.28799 z"
         id="path4652" />
      <path
         style="fill:#000000;fill-opacity:1;stroke:#000000;stroke-width:1.90910625;stroke-miterlimit:4;stroke-dasharray:none;stroke-opacity:1"
         d="m 155.51386,183.35777 c -5.58539,-1.55572 -15.38207,-5.27126 -26.49628,-10.0491 -2.5346,-1.08959 -4.60928,-2.04915 -4.6104,-2.13235 -10e-4,-0.0832 0.68954,-0.43127 1.53478,-0.77349 3.09592,-1.25347 6.74004,-3.27129 7.52744,-4.16808 0.44438,-0.50613 1.05066,-1.71621 1.36292,-2.72027 0.98859,-3.17887 2.36052,-12.48071 2.84272,-19.27398 0.0955,-1.3454 0.26557,-2.44619 0.37794,-2.44619 0.37716,0 9.79512,17.49724 14.81747,27.52876 2.42021,4.83407 7.08156,14.61555 7.08156,14.86009 0,0.27469 -1.47043,0.001 -4.43815,-0.82539 z"
         id="path4654" />
    </g>
  </g>
</svg>
