<?xml version="1.0" encoding="UTF-8" standalone="no"?>
<!-- Created with Inkscape (http://www.inkscape.org/) -->

<svg
   xmlns:dc="http://purl.org/dc/elements/1.1/"
   xmlns:cc="http://creativecommons.org/ns#"
   xmlns:rdf="http://www.w3.org/1999/02/22-rdf-syntax-ns#"
   xmlns:svg="http://www.w3.org/2000/svg"
   xmlns="http://www.w3.org/2000/svg"
   xmlns:sodipodi="http://sodipodi.sourceforge.net/DTD/sodipodi-0.dtd"
   xmlns:inkscape="http://www.inkscape.org/namespaces/inkscape"
   width="249.99998mm"
   height="250mm"
   viewBox="0 0 249.99998 250"
   version="1.1"
   id="svg8"
   inkscape:version="0.92.4 5da689c313, 2019-01-14"
   sodipodi:docname="kalem-icon.svg">
  <defs
     id="defs2" />
  <sodipodi:namedview
     id="base"
     pagecolor="#ffffff"
     bordercolor="#666666"
     borderopacity="1.0"
     inkscape:pageopacity="0.0"
     inkscape:pageshadow="2"
     inkscape:zoom="1.4"
     inkscape:cx="562.32851"
     inkscape:cy="592.44685"
     inkscape:document-units="mm"
     inkscape:current-layer="layer1"
     showgrid="false"
     showguides="false"
     inkscape:lockguides="false"
     inkscape:window-width="1916"
     inkscape:window-height="1037"
     inkscape:window-x="0"
     inkscape:window-y="20"
     inkscape:window-maximized="0" />
  <metadata
     id="metadata5">
    <rdf:RDF>
      <cc:Work
         rdf:about="">
        <dc:format>image/svg+xml</dc:format>
        <dc:type
           rdf:resource="http://purl.org/dc/dcmitype/StillImage" />
        <dc:title></dc:title>
      </cc:Work>
    </rdf:RDF>
  </metadata>
  <g
     inkscape:label="Layer 1"
     inkscape:groupmode="layer"
     id="layer1"
     transform="translate(49.78326,39.575126)">
    <g
       id="g4715"
       transform="matrix(1.1529376,0,0,1.1529376,-16.423381,-12.085297)">
      <path
         inkscape:connector-curvature="0"
         id="path4650"
         d="m 31.696999,106.81874 c 0.0143,-8.979095 15.391104,-46.694417 35.097067,-86.084311 8.056995,-16.1049762 18.034277,-34.384981 19.759151,-36.201978 1.167229,-1.229549 37.493263,14.67705156 43.359373,18.9863852 0.95367,0.7005708 1.90697,1.7155665 2.11848,2.2555429 0.57209,1.460538 1.31431,6.1929669 1.77227,11.2999749 0.6353,7.084537 0.8551,37.972578 0.37744,53.039161 -0.43701,13.784187 -1.3469,32.393765 -1.59604,32.642905 -0.0774,0.0773 -1.898,-2.836903 -4.04595,-6.476024 C 110.99862,66.563337 96.36187,46.131691 89.175754,41.33299 86.420671,39.493208 84.838355,39.414488 82.106346,40.981266 74.253717,45.484679 56.223218,69.253145 35.183504,102.83669 c -0.996081,1.65544 -3.491478,7.77755 -3.486539,3.98205 z"
         style="fill:#000000;fill-opacity:1;stroke:#000000;stroke-width:2.58606672;stroke-miterlimit:4;stroke-dasharray:none;stroke-opacity:1"
         sodipodi:nodetypes="csccccscsccccc" />
      <path
         inkscape:connector-curvature="0"
         id="path4652"
         d="m -5.9579127,184.53505 c 0,-1.04142 9.7343326,-20.76633 15.5522657,-31.5139 5.717997,-10.56297 21.748198,-38.32624 22.649598,-39.22765 0.07167,-0.0717 1.0788,0.59953 2.238063,1.49157 9.462635,7.28133 39.350517,23.42436 66.181466,35.74589 3.58421,1.64597 6.63729,3.09945 6.78463,3.22995 0.14732,0.13053 -3.11106,1.40921 -7.24084,2.84153 -33.170897,11.50466 -81.974288,24.59191 -100.84360214,27.0425 -4.57000436,0.59352 -5.32158056,0.64861 -5.32158056,0.39011 z"
         style="fill:#000000;fill-opacity:1;stroke:#000000;stroke-width:2.58606672;stroke-miterlimit:4;stroke-dasharray:none;stroke-opacity:1" />
      <path
         inkscape:connector-curvature="0"
         id="path4654"
         d="m 158.91405,171.12738 c -7.56594,-2.10737 -20.83648,-7.14041 -35.89174,-13.61247 -3.43336,-1.47595 -6.2437,-2.77576 -6.24523,-2.88845 -0.001,-0.11265 0.93406,-0.58421 2.079,-1.04778 4.19373,-1.69795 9.13003,-4.43126 10.19665,-5.64606 0.60196,-0.68559 1.42321,-2.32476 1.84621,-3.68486 1.33913,-4.30609 3.19755,-16.90631 3.85073,-26.10845 0.12939,-1.82246 0.35974,-3.3136 0.51195,-3.3136 0.5109,0 13.26843,23.70168 20.07168,37.29033 3.2784,6.54821 9.59265,19.79817 9.59265,20.12942 0,0.37209 -1.99184,0.001 -6.0119,-1.11808 z"
         style="fill:#000000;fill-opacity:1;stroke:#000000;stroke-width:2.58606672;stroke-miterlimit:4;stroke-dasharray:none;stroke-opacity:1" />
    </g>
  </g>
</svg>
